<svg width="56" height="56" viewBox="0 0 56 56" fill="none" xmlns="http://www.w3.org/2000/svg">
<path fill-rule="evenodd" clip-rule="evenodd" d="M55.0182 29.6333C55.0504 29.093 55.0667 28.5484 55.0667 28C55.0667 27.6091 55.0584 27.2202 55.042 26.8333L42.347 26.8333C42.5794 27.0671 42.8279 27.2828 43.0924 27.4741C43.7779 27.9699 44.2187 28.505 44.4275 29.0589C44.5006 29.253 44.5436 29.4453 44.5595 29.6333L55.0182 29.6333ZM54.9466 30.5667H44.4121C44.4012 30.5927 44.3898 30.6184 44.3779 30.644C43.9824 31.4935 43.0442 32.0485 42.0983 32.1392C41.9963 32.2789 41.895 32.4673 41.8502 32.6699C41.8008 32.8928 41.8175 33.1292 41.9884 33.3667H54.5347C54.7192 32.4493 54.8573 31.5151 54.9466 30.5667ZM42.4169 34.4339C42.4197 34.3891 42.4204 34.3445 42.4187 34.3H54.3296C54.0871 35.3174 53.7871 36.3124 53.4333 37.2816V37.1H42.1165C42.1018 37.0129 42.0845 36.9262 42.064 36.842C42.0176 36.6509 41.948 36.4409 41.8371 36.2649C41.7692 36.1572 41.6669 36.0342 41.5232 35.9497C41.7327 35.7602 41.938 35.5387 42.0981 35.2971C42.2593 35.0539 42.3958 34.759 42.4169 34.4339ZM42.1809 38.0333C42.1635 38.139 42.1101 38.2363 42.0286 38.3081C41.8833 38.4359 41.6486 38.6368 41.4134 38.827C41.2269 38.9779 41.0182 39.14 40.851 39.2488C40.8432 39.2768 40.8343 39.3154 40.8253 39.3665C40.7951 39.5364 40.7752 39.774 40.7649 40.0509C40.7555 40.3024 40.7544 40.5731 40.7584 40.8333H51.8V40.9013C52.3024 39.9766 52.7524 39.0192 53.1461 38.0333H42.1809ZM40.4261 43.9296C40.7409 43.2005 40.816 42.3578 40.7932 41.7667H51.3091C50.7324 42.7409 50.0964 43.6759 49.4061 44.5667H40.0578C40.2084 44.3695 40.33 44.1523 40.4261 43.9296ZM38.5 45.4338C38.4271 45.4401 38.3522 45.4434 38.275 45.4434C36.4449 45.4434 32.0338 44.8457 30.0485 44.547C29.3837 44.5472 27.7365 45.0139 26.8719 47.0971C26.7184 47.4669 26.5121 47.8727 26.2681 48.3L45.9034 48.3C46.8845 47.4341 47.8023 46.4981 48.6491 45.5H38.5V45.4338ZM25.6998 49.2333C25.2436 49.9432 24.7205 50.6816 24.1895 51.3927C24.0284 51.6084 23.866 51.8225 23.7037 52.0333H39.6667V52.4302C41.4966 51.5547 43.2128 50.4797 44.7872 49.2333L25.6998 49.2333ZM21.8248 54.3591C22.174 53.9467 22.5645 53.4744 22.9708 52.9667H38.4714C35.2504 54.3192 31.7125 55.0667 28 55.0667C25.8755 55.0667 23.8082 54.8219 21.8248 54.3591ZM41.5631 25.9L54.9864 25.9C54.9137 24.9522 54.7921 24.018 54.6243 23.1L40.1945 23.1C40.2816 23.3903 40.3907 23.6981 40.5222 24.014C40.7859 24.6479 41.1336 25.2998 41.5631 25.9ZM39.9776 22.1667C39.9097 21.7261 39.9262 21.4464 39.9651 21.3318C39.9792 21.2906 39.9873 21.2475 39.9894 21.204C40.013 20.7146 40.0124 20.0826 39.9707 19.3667L53.6606 19.3667C53.9675 20.2792 54.2271 21.2135 54.4365 22.1667L39.9776 22.1667ZM39.896 18.4333H53.3275C52.9644 17.4727 52.5483 16.5382 52.0827 15.6333L39.4132 15.6333C39.4911 15.9421 39.5594 16.2506 39.6192 16.5555C39.7454 17.1988 39.8351 17.8338 39.896 18.4333ZM39.1468 14.7C38.8248 13.6969 38.3891 12.7257 37.8035 11.9L49.4667 11.9V11.5118C50.2427 12.5207 50.9492 13.5858 51.5791 14.7L39.1468 14.7ZM52.6457 14.7C51.1497 11.9335 49.2014 9.44746 46.9 7.34087V7.23333H46.7818C41.8146 2.73802 35.227 0 28 0C12.536 0 0 12.536 0 28C0 43.464 12.536 56 28 56C43.464 56 56 43.464 56 28C56 23.2524 54.8184 18.7809 52.7333 14.8633V14.7H52.6457ZM37.054 10.9667H49.0361C48.2303 9.97266 47.3554 9.03689 46.4187 8.16667L35.8462 8.16667C35.8076 8.31738 35.7461 8.4794 35.632 8.5997C35.6084 8.62456 35.5802 8.65002 35.5474 8.6736C35.5646 8.72683 35.5892 8.79184 35.624 8.86981C35.806 9.27764 36.2206 9.94375 37.054 10.9667ZM35.9536 7.23333L45.3605 7.23333C44.0315 6.12117 42.5942 5.1342 41.0667 4.29056V4.43333L34.474 4.43333C34.7838 4.58883 35.0567 4.7539 35.279 4.92994C35.6233 5.20262 35.9272 5.56705 35.945 6.03026C35.9637 6.51349 35.9653 6.90977 35.9536 7.23333ZM28 0.933333C32.1196 0.933333 36.0243 1.85369 39.5196 3.5L31.9119 3.5C31.1902 3.29536 30.4026 3.10319 29.5812 2.92405C27.0729 2.37703 24.1988 1.94115 21.8049 1.64559C23.7944 1.17973 25.8684 0.933333 28 0.933333ZM29.3823 3.83595C30.2251 4.01975 31.0191 4.21487 31.7333 4.4196V4.43333H31.7811C32.4397 4.62348 33.0293 4.82185 33.5251 5.02709C34.0488 5.2438 34.4423 5.45794 34.6995 5.66161C34.9674 5.87378 35.0103 6.01172 35.0124 6.06624C35.0513 7.0731 35.0097 7.61202 34.9561 7.87379C34.8609 7.91721 34.7749 7.98558 34.7088 8.07867C34.6212 8.202 34.5884 8.34008 34.5814 8.46244C34.568 8.69609 34.6433 8.96235 34.7717 9.25015C34.976 9.70787 35.3722 10.3437 36.0593 11.2177C34.8075 11.6779 33.0957 12.46 31.3708 13.5468C29.3182 14.8402 27.2121 16.5871 25.8538 18.7701C23.9913 21.7634 22.8894 23.5089 22.327 24.3894C22.0636 23.9253 21.7242 23.3961 21.3274 22.8754C20.7027 22.0558 19.9092 21.2226 19.0149 20.7115C18.0263 20.1466 17.0248 19.8054 16.0933 19.879C15.1278 19.9553 14.3096 20.4714 13.7165 21.4599C13.4501 21.904 13.3471 22.5219 13.3183 23.1561C13.2887 23.8067 13.3351 24.5459 13.4193 25.2828C13.5877 26.7579 13.9136 28.2755 14.13 29.1608C14.1311 29.1653 14.1323 29.1698 14.1335 29.1743L14.1346 29.1782C14.1356 29.1814 14.1365 29.1847 14.1375 29.1879C14.9637 31.8586 15.869 36.1408 15.8988 40.2854C15.9283 44.4009 15.094 48.2239 12.6498 50.296C5.57205 45.4139 0.933333 37.2487 0.933333 28C0.933333 15.999 8.74374 5.82228 19.5587 2.27558L19.5531 2.33097C22.1729 2.59545 26.1036 3.12091 29.3823 3.83595ZM13.4552 50.8306C15.7043 52.2664 18.1798 53.3791 20.8161 54.103C21.5385 53.2644 22.5136 52.0771 23.4417 50.8343C24.5465 49.3547 25.5548 47.8355 26.0098 46.7393C27.0502 44.2326 29.1098 43.5941 30.0954 43.6141C30.1156 43.6145 30.1356 43.6163 30.1555 43.6193C32.1475 43.9196 36.5199 44.5101 38.275 44.5101C38.9269 44.5101 39.3201 44.1368 39.5692 43.5597C39.8265 42.9637 39.8869 42.2215 39.8564 41.7195L39.8564 41.7182C39.8309 41.2778 39.8102 40.605 39.8322 40.0161C39.8431 39.7239 39.865 39.4363 39.9063 39.2034C39.9267 39.0883 39.9549 38.9684 39.9972 38.8617C40.0312 38.7761 40.1106 38.6008 40.291 38.498C40.3926 38.4401 40.593 38.2901 40.8265 38.1013C40.9751 37.9811 41.1244 37.8557 41.2482 37.7495C41.2374 37.5331 41.2095 37.2785 41.157 37.0622C41.123 36.9219 41.0851 36.826 41.0529 36.7714C40.8157 36.741 40.6095 36.6703 40.4536 36.5419C40.2746 36.3944 40.1659 36.1651 40.2142 35.9244C40.2392 35.8001 40.3136 35.6913 40.4205 35.623C40.7148 35.4349 41.0985 35.1159 41.3202 34.7814C41.4298 34.616 41.4787 34.4785 41.4855 34.3737C41.4911 34.2865 41.4707 34.196 41.374 34.0888C40.8984 33.562 40.8278 32.9698 40.9389 32.468C41.045 31.9891 41.3135 31.592 41.5331 31.3626C41.619 31.2729 41.7371 31.2211 41.8613 31.2187C42.5922 31.2048 43.2838 30.7827 43.5318 30.25C43.6488 29.9988 43.6756 29.7105 43.5541 29.388C43.4289 29.0557 43.1331 28.6554 42.5454 28.2303C41.1791 27.2421 40.2276 25.7357 39.6604 24.3726C39.3754 23.6876 39.1814 23.0245 39.0803 22.4601C38.9899 21.9548 38.9613 21.462 39.0598 21.1023C39.1031 20.0938 39.0387 18.4444 38.7034 16.7351C38.3599 14.9845 37.7436 13.2303 36.7208 12.0252L36.6865 11.9848C35.4837 12.4002 33.6854 13.1916 31.8684 14.3365C29.8785 15.5903 27.9012 17.2463 26.6462 19.2632C24.034 23.4614 22.9099 25.2182 22.6716 25.5755C22.578 25.716 22.4159 25.7949 22.2476 25.782C22.0793 25.769 21.9311 25.6663 21.8601 25.5132C21.6214 24.9991 21.1722 24.2114 20.5851 23.4412C19.9946 22.6664 19.2908 21.9441 18.5518 21.5218C17.6372 20.9992 16.8304 20.757 16.1668 20.8095C15.5373 20.8592 14.9737 21.1786 14.5168 21.9401C14.3744 22.1775 14.2778 22.6003 14.2506 23.1985C14.2242 23.7804 14.2653 24.4654 14.3466 25.1769C14.5081 26.5911 14.822 28.0591 15.0333 28.9256C15.8782 31.6614 16.8016 36.0285 16.8321 40.2787C16.8612 44.3392 16.0761 48.4426 13.4552 50.8306ZM41.0314 36.7401C41.0315 36.7401 41.032 36.7406 41.0329 36.7417C41.0319 36.7407 41.0314 36.7401 41.0314 36.7401ZM40.8707 39.1931C40.8708 39.1934 40.8694 39.1968 40.8661 39.2025C40.869 39.1957 40.8706 39.1928 40.8707 39.1931Z" fill="#012C23"/>
</svg>
