<svg width="172" height="56" viewBox="0 0 172 56" fill="none" xmlns="http://www.w3.org/2000/svg">
<path d="M70.4028 47.1529L70.3978 45.0413L69.3621 46.7809H68.9951L67.9644 45.0866V47.1529H67.2002V43.6336H67.8739L69.1911 45.8206L70.4883 43.6336H71.1569L71.167 47.1529H70.4028Z" fill="#FFC5C1"/>
<path d="M75.2297 46.4993V47.1529H72.5047V43.6336H75.1643V44.2872H73.3142V45.0514H74.9482V45.6848H73.3142V46.4993H75.2297Z" fill="#FFC5C1"/>
<path d="M76.3805 43.6336H77.9793C78.3614 43.6336 78.6983 43.7073 78.9899 43.8548C79.2848 43.9989 79.5127 44.2034 79.6736 44.4682C79.8378 44.7329 79.92 45.0413 79.92 45.3932C79.92 45.7452 79.8378 46.0535 79.6736 46.3183C79.5127 46.5831 79.2848 46.7892 78.9899 46.9367C78.6983 47.0808 78.3614 47.1529 77.9793 47.1529H76.3805V43.6336ZM77.9391 46.4842C78.291 46.4842 78.5709 46.387 78.7787 46.1926C78.9899 45.9949 79.0954 45.7284 79.0954 45.3932C79.0954 45.0581 78.9899 44.7933 78.7787 44.5989C78.5709 44.4011 78.291 44.3022 77.9391 44.3022H77.195V46.4842H77.9391Z" fill="#FFC5C1"/>
<path d="M82.574 45.9061V47.1529H81.7596V45.896L80.3971 43.6336H81.2618L82.202 45.1972L83.1422 43.6336H83.9416L82.574 45.9061Z" fill="#FFC5C1"/>
<path d="M86.3171 47.2132C85.9585 47.2132 85.6334 47.1362 85.3418 46.982C85.0535 46.8244 84.8256 46.6083 84.658 46.3334C84.4938 46.0552 84.4117 45.7418 84.4117 45.3932C84.4117 45.0447 84.4938 44.7329 84.658 44.4581C84.8256 44.1799 85.0535 43.9637 85.3418 43.8095C85.6334 43.652 85.9602 43.5732 86.3222 43.5732C86.6272 43.5732 86.902 43.6269 87.1467 43.7341C87.3947 43.8414 87.6025 43.9956 87.7701 44.1967L87.2473 44.6793C87.0093 44.4045 86.7143 44.2671 86.3624 44.2671C86.1445 44.2671 85.9501 44.3157 85.7792 44.4129C85.6082 44.5067 85.4742 44.6391 85.377 44.81C85.2831 44.981 85.2362 45.1754 85.2362 45.3932C85.2362 45.6111 85.2831 45.8055 85.377 45.9764C85.4742 46.1474 85.6082 46.2815 85.7792 46.3787C85.9501 46.4725 86.1445 46.5194 86.3624 46.5194C86.7143 46.5194 87.0093 46.3803 87.2473 46.1021L87.7701 46.5848C87.6025 46.7892 87.3947 46.9451 87.1467 47.0524C86.8987 47.1596 86.6222 47.2132 86.3171 47.2132Z" fill="#FFC5C1"/>
<path d="M90.4778 45.9061V47.1529H89.6633V45.896L88.3009 43.6336H89.1656L90.1058 45.1972L91.0459 43.6336H91.8453L90.4778 45.9061Z" fill="#FFC5C1"/>
<path d="M95.8822 43.6336V47.1529H95.2136L93.4589 45.0162V47.1529H92.6545V43.6336H93.3282L95.0778 45.7703V43.6336H95.8822Z" fill="#FFC5C1"/>
<path d="M99.5354 46.3988H97.9014L97.5897 47.1529H96.7551L98.3237 43.6336H99.1282L100.702 47.1529H99.8471L99.5354 46.3988ZM99.279 45.7804L98.7209 44.433L98.1629 45.7804H99.279Z" fill="#FFC5C1"/>
<path d="M106.221 46.4993V47.1529H103.496V43.6336H106.156V44.2872H104.306V45.0514H105.94V45.6848H104.306V46.4993H106.221Z" fill="#FFC5C1"/>
<path d="M108.528 47.2132C108.25 47.2132 107.98 47.1764 107.719 47.1026C107.461 47.0255 107.253 46.9267 107.096 46.806L107.372 46.1926C107.523 46.3032 107.702 46.3921 107.91 46.4591C108.118 46.5261 108.326 46.5597 108.533 46.5597C108.765 46.5597 108.936 46.5261 109.046 46.4591C109.157 46.3887 109.212 46.2965 109.212 46.1826C109.212 46.0988 109.179 46.0301 109.112 45.9764C109.048 45.9195 108.964 45.8742 108.86 45.8407C108.76 45.8072 108.622 45.7703 108.448 45.7301C108.18 45.6664 107.96 45.6027 107.789 45.539C107.618 45.4754 107.471 45.3731 107.347 45.2324C107.226 45.0916 107.166 44.9039 107.166 44.6693C107.166 44.4648 107.221 44.2805 107.332 44.1162C107.442 43.9486 107.608 43.8162 107.83 43.719C108.054 43.6218 108.327 43.5732 108.649 43.5732C108.874 43.5732 109.093 43.6001 109.308 43.6537C109.522 43.7073 109.71 43.7844 109.871 43.885L109.619 44.5034C109.294 44.319 108.969 44.2268 108.644 44.2268C108.416 44.2268 108.247 44.2637 108.136 44.3374C108.029 44.4112 107.975 44.5084 107.975 44.629C107.975 44.7497 108.037 44.8402 108.161 44.9005C108.289 44.9575 108.482 45.0145 108.74 45.0715C109.008 45.1352 109.227 45.1988 109.398 45.2625C109.569 45.3262 109.715 45.4268 109.836 45.5642C109.96 45.7016 110.022 45.8876 110.022 46.1222C110.022 46.3234 109.965 46.5077 109.851 46.6753C109.74 46.8395 109.573 46.9702 109.348 47.0674C109.123 47.1646 108.85 47.2132 108.528 47.2132Z" fill="#FFC5C1"/>
<path d="M111.761 44.2972H110.635V43.6336H113.702V44.2972H112.575V47.1529H111.761V44.2972Z" fill="#FFC5C1"/>
<path d="M117.367 46.4993V47.1529H114.642V43.6336H117.302V44.2872H115.452V45.0514H117.086V45.6848H115.452V46.4993H117.367Z" fill="#FFC5C1"/>
<path d="M119.247 44.2972H118.121V43.6336H121.188V44.2972H120.062V47.1529H119.247V44.2972Z" fill="#FFC5C1"/>
<path d="M123.754 45.9061V47.1529H122.94V45.896L121.577 43.6336H122.442L123.382 45.1972L124.323 43.6336H125.122L123.754 45.9061Z" fill="#FFC5C1"/>
<path d="M127.498 47.2132C127.139 47.2132 126.814 47.1362 126.522 46.982C126.234 46.8244 126.006 46.6083 125.838 46.3334C125.674 46.0552 125.592 45.7418 125.592 45.3932C125.592 45.0447 125.674 44.7329 125.838 44.4581C126.006 44.1799 126.234 43.9637 126.522 43.8095C126.814 43.652 127.141 43.5732 127.503 43.5732C127.808 43.5732 128.082 43.6269 128.327 43.7341C128.575 43.8414 128.783 43.9956 128.95 44.1967L128.428 44.6793C128.19 44.4045 127.895 44.2671 127.543 44.2671C127.325 44.2671 127.13 44.3157 126.96 44.4129C126.789 44.5067 126.655 44.6391 126.557 44.81C126.463 44.981 126.417 45.1754 126.417 45.3932C126.417 45.6111 126.463 45.8055 126.557 45.9764C126.655 46.1474 126.789 46.2815 126.96 46.3787C127.13 46.4725 127.325 46.5194 127.543 46.5194C127.895 46.5194 128.19 46.3803 128.428 46.1021L128.95 46.5848C128.783 46.7892 128.575 46.9451 128.327 47.0524C128.079 47.1596 127.803 47.2132 127.498 47.2132Z" fill="#FFC5C1"/>
<path d="M132.854 46.4893V47.1529H129.777V46.625L131.708 44.2972H129.817V43.6336H132.779V44.1615L130.853 46.4893H132.854Z" fill="#FFC5C1"/>
<path d="M137.107 43.6336V47.1529H136.438L134.683 45.0162V47.1529H133.879V43.6336H134.553L136.302 45.7703V43.6336H137.107Z" fill="#FFC5C1"/>
<path d="M140.76 46.3988H139.126L138.814 47.1529H137.98L139.548 43.6336H140.353L141.926 47.1529H141.072L140.76 46.3988ZM140.504 45.7804L139.945 44.433L139.387 45.7804H140.504Z" fill="#FFC5C1"/>
<path d="M78.5473 18.7597C78.7644 19.0553 78.9605 19.2875 79.1354 19.4565C79.3164 19.6254 79.5396 19.7701 79.805 19.8908V20.2618C78.9424 20.2256 77.9983 20.2075 76.9728 20.2075C76.086 20.2075 75.2415 20.2256 74.4392 20.2618V19.8908C74.8313 19.8787 75.1088 19.8456 75.2716 19.7913C75.4345 19.737 75.516 19.6525 75.516 19.5379C75.516 19.4353 75.4466 19.2755 75.3078 19.0583L72.8828 15.5746C72.6716 15.2729 72.4605 15.0467 72.2494 14.8959C72.0382 14.7451 71.7638 14.6606 71.4259 14.6425V18.2982C71.4259 18.7627 71.4591 19.1005 71.5255 19.3117C71.5979 19.5228 71.7276 19.6676 71.9146 19.746C72.1016 19.8244 72.4032 19.8727 72.8194 19.8908V20.2618C72.174 20.2256 71.257 20.2075 70.0686 20.2075C68.7898 20.2075 67.8336 20.2256 67.2002 20.2618V19.8908C67.6164 19.8727 67.9181 19.8244 68.1051 19.746C68.2921 19.6676 68.4188 19.5228 68.4851 19.3117C68.5575 19.1005 68.5937 18.7627 68.5937 18.2982V10.9597C68.5937 10.4952 68.5575 10.1574 68.4851 9.94627C68.4188 9.73513 68.2921 9.59035 68.1051 9.51193C67.9181 9.43351 67.6164 9.38525 67.2002 9.36715V8.99616C67.8336 9.03235 68.7898 9.05045 70.0686 9.05045C71.257 9.05045 72.174 9.03235 72.8194 8.99616V9.36715C72.3972 9.38525 72.0925 9.43351 71.9055 9.51193C71.7245 9.59035 71.5979 9.73513 71.5255 9.94627C71.4591 10.1514 71.4259 10.4892 71.4259 10.9597V14.2716C71.9628 14.2233 72.4515 14.0906 72.8918 13.8734C73.3322 13.6502 73.8057 13.2973 74.3125 12.8147L75.4436 11.6655C75.9201 11.2131 76.1584 10.7818 76.1584 10.3716C76.1584 10.076 76.0317 9.83467 75.7784 9.64766C75.531 9.46066 75.1992 9.36112 74.783 9.34906V8.99616C75.6698 9.03235 76.6199 9.05045 77.6334 9.05045C78.2969 9.05045 78.8459 9.03235 79.2802 8.99616V9.34906C78.8459 9.45161 78.4296 9.62353 78.0315 9.86483C77.6394 10.1001 77.2171 10.4349 76.7647 10.8692L74.4844 13.1224L78.5473 18.7597Z" fill="#FFC5C1"/>
<path d="M90.3649 18.7054C90.7208 19.4776 91.1099 19.8727 91.5322 19.8908V20.2618C90.953 20.2256 90.1417 20.2075 89.0981 20.2075C87.7769 20.2075 86.8027 20.2256 86.1753 20.2618V19.8908C86.5855 19.8727 86.8872 19.8124 87.0802 19.7098C87.2793 19.6012 87.3788 19.4263 87.3788 19.185C87.3788 18.9678 87.2974 18.6843 87.1345 18.3344L86.2115 16.2261H82.3206L82.1034 16.7237C81.7535 17.52 81.5786 18.1565 81.5786 18.633C81.5786 19.0613 81.7143 19.372 81.9858 19.565C82.2572 19.752 82.6584 19.8606 83.1893 19.8908V20.2618C82.4835 20.2256 81.7746 20.2075 81.0628 20.2075C80.4053 20.2075 79.9046 20.2256 79.5607 20.2618V19.8908C79.8684 19.8305 80.1459 19.6465 80.3932 19.3388C80.6405 19.0251 80.906 18.5456 81.1895 17.9001L85.1076 8.95996C85.3006 8.97203 85.4424 8.97806 85.5329 8.97806C85.6354 8.97806 85.7772 8.97203 85.9582 8.95996L90.3649 18.7054ZM84.2751 11.7922L82.4835 15.8551H86.0486L84.2751 11.7922Z" fill="#FFC5C1"/>
<path d="M107.15 9.36715C106.704 9.38525 106.378 9.43351 106.173 9.51193C105.974 9.59035 105.835 9.73513 105.757 9.94627C105.684 10.1574 105.648 10.4952 105.648 10.9597V18.2982C105.648 18.7627 105.684 19.1005 105.757 19.3117C105.835 19.5228 105.974 19.6676 106.173 19.746C106.378 19.8244 106.704 19.8727 107.15 19.8908V20.2618C106.493 20.2256 105.561 20.2075 104.354 20.2075C102.931 20.2075 101.878 20.2256 101.196 20.2618V19.8908C101.643 19.8727 101.965 19.8244 102.164 19.746C102.369 19.6676 102.508 19.5228 102.581 19.3117C102.659 19.1005 102.698 18.7627 102.698 18.2982V10.1634L98.4544 20.3523H98.1649L93.8577 10.1815V17.7824C93.8577 18.3314 93.9059 18.7416 94.0025 19.0131C94.099 19.2845 94.28 19.4866 94.5454 19.6193C94.8108 19.746 95.218 19.8365 95.767 19.8908V20.2618C95.224 20.2256 94.5212 20.2075 93.6586 20.2075C92.9649 20.2075 92.428 20.2256 92.0479 20.2618V19.8908C92.4521 19.8365 92.7477 19.746 92.9347 19.6193C93.1277 19.4866 93.2574 19.2845 93.3238 19.0131C93.3962 18.7416 93.4324 18.3314 93.4324 17.7824V10.9597C93.4324 10.4952 93.3932 10.1574 93.3148 9.94627C93.2424 9.73513 93.1036 9.59035 92.8985 9.51193C92.6994 9.43351 92.3767 9.38525 91.9303 9.36715V8.99616C92.5939 9.03235 93.5772 9.05045 94.8802 9.05045C95.5257 9.05045 96.0776 9.03235 96.5361 8.99616L99.6036 16.3799L102.698 9.05045H104.354C105.555 9.05045 106.487 9.03235 107.15 8.99616V9.36715Z" fill="#FFC5C1"/>
<path d="M113.991 9.36715C113.569 9.38525 113.264 9.43351 113.077 9.51193C112.896 9.59035 112.769 9.73513 112.697 9.94627C112.631 10.1514 112.598 10.4892 112.598 10.9597V18.2982C112.598 18.7627 112.631 19.1005 112.697 19.3117C112.769 19.5228 112.899 19.6676 113.086 19.746C113.273 19.8244 113.575 19.8727 113.991 19.8908V20.2618C113.352 20.2256 112.435 20.2075 111.24 20.2075C109.937 20.2075 108.981 20.2256 108.372 20.2618V19.8908C108.788 19.8727 109.09 19.8244 109.277 19.746C109.464 19.6676 109.59 19.5228 109.657 19.3117C109.729 19.1005 109.765 18.7627 109.765 18.2982V10.9597C109.765 10.4952 109.729 10.1574 109.657 9.94627C109.59 9.73513 109.464 9.59035 109.277 9.51193C109.09 9.43351 108.788 9.38525 108.372 9.36715V8.99616C108.975 9.03235 109.931 9.05045 111.24 9.05045C112.435 9.05045 113.352 9.03235 113.991 8.99616V9.36715Z" fill="#FFC5C1"/>
<path d="M120.886 9.36715C120.464 9.38525 120.159 9.43351 119.972 9.51193C119.791 9.59035 119.665 9.73513 119.592 9.94627C119.526 10.1514 119.493 10.4892 119.493 10.9597V18.5154C119.493 18.9015 119.526 19.188 119.592 19.375C119.665 19.562 119.779 19.6857 119.936 19.746C120.099 19.8063 120.34 19.8365 120.66 19.8365H121.384C122.198 19.8365 122.883 19.5439 123.438 18.9588C123.999 18.3676 124.376 17.4175 124.569 16.1084H124.994C124.958 16.5066 124.94 17.0133 124.94 17.6286C124.94 18.4068 124.982 19.2845 125.067 20.2618C124.264 20.2256 122.913 20.2075 121.013 20.2075C118.467 20.2075 116.552 20.2256 115.267 20.2618V19.8908C115.683 19.8727 115.985 19.8244 116.172 19.746C116.359 19.6676 116.485 19.5228 116.552 19.3117C116.624 19.1005 116.66 18.7627 116.66 18.2982V10.9597C116.66 10.4952 116.624 10.1574 116.552 9.94627C116.485 9.73513 116.359 9.59035 116.172 9.51193C115.985 9.43351 115.683 9.38525 115.267 9.36715V8.99616C115.9 9.03235 116.878 9.05045 118.199 9.05045C119.351 9.05045 120.247 9.03235 120.886 8.99616V9.36715Z" fill="#FFC5C1"/>
<path d="M71.4259 34.7121C71.4259 35.1766 71.4621 35.5144 71.5345 35.7255C71.6129 35.9366 71.7517 36.0814 71.9508 36.1598C72.1559 36.2383 72.4816 36.2865 72.928 36.3046V36.6756C72.1981 36.6394 71.1545 36.6213 69.7972 36.6213C68.6269 36.6213 67.7612 36.6394 67.2002 36.6756V36.3046C67.6164 36.2865 67.9181 36.2383 68.1051 36.1598C68.2921 36.0814 68.4188 35.9366 68.4851 35.7255C68.5575 35.5144 68.5937 35.1766 68.5937 34.7121V27.3736C68.5937 26.9091 68.5575 26.5712 68.4851 26.3601C68.4188 26.149 68.2921 26.0042 68.1051 25.9258C67.9181 25.8473 67.6164 25.7991 67.2002 25.781V25.41C67.7612 25.4462 68.5877 25.4643 69.6795 25.4643C69.9329 25.4643 70.6749 25.4552 71.9055 25.4371L72.8194 25.4281C74.4301 25.4281 75.6245 25.6965 76.4027 26.2334C77.1869 26.7703 77.5791 27.5334 77.5791 28.5227C77.5791 29.1501 77.4162 29.7323 77.0904 30.2691C76.7647 30.806 76.2006 31.2494 75.3983 31.5993C74.602 31.9432 73.5433 32.1151 72.2222 32.1151H71.4259V34.7121ZM72.5751 25.781C72.2494 25.781 72.0051 25.8262 71.8422 25.9167C71.6853 26.0012 71.5768 26.155 71.5164 26.3782C71.4561 26.6014 71.4259 26.9332 71.4259 27.3736V31.7441H72.0413C73.0185 31.7441 73.6911 31.4756 74.0591 30.9387C74.4271 30.3958 74.6111 29.6568 74.6111 28.7218C74.6111 27.7204 74.4542 26.9814 74.1406 26.5049C73.8269 26.0223 73.3051 25.781 72.5751 25.781Z" fill="#FFC5C1"/>
<path d="M90.4825 35.8974C90.1869 36.2413 89.8521 36.5007 89.4781 36.6756C89.1041 36.8506 88.6426 36.938 88.0937 36.938C87.3879 36.938 86.8419 36.8023 86.4558 36.5308C86.0758 36.2533 85.8285 35.8854 85.7138 35.4269L85.18 33.2462C85.0835 32.7756 84.9568 32.4167 84.7999 32.1694C84.6431 31.922 84.45 31.7531 84.2208 31.6626C83.9916 31.5722 83.696 31.5269 83.334 31.5269H82.7187V34.7121C82.7187 35.1766 82.7519 35.5144 82.8183 35.7255C82.8906 35.9366 83.0203 36.0814 83.2074 36.1598C83.3944 36.2383 83.696 36.2865 84.1122 36.3046V36.6756C83.3944 36.6394 82.3869 36.6213 81.09 36.6213C79.9197 36.6213 79.054 36.6394 78.493 36.6756V36.3046C78.9092 36.2865 79.2108 36.2383 79.3978 36.1598C79.5849 36.0814 79.7115 35.9366 79.7779 35.7255C79.8503 35.5144 79.8865 35.1766 79.8865 34.7121V27.3736C79.8865 26.903 79.8503 26.5622 79.7779 26.3511C79.7115 26.1399 79.5849 25.9982 79.3978 25.9258C79.2108 25.8473 78.9092 25.7991 78.493 25.781V25.41C79.054 25.4462 79.8804 25.4643 80.9723 25.4643C81.2076 25.4643 81.9134 25.4552 83.0897 25.4371L83.9222 25.4281C85.5872 25.4281 86.8268 25.6784 87.6412 26.1791C88.4616 26.6798 88.8718 27.3736 88.8718 28.2603C88.8718 28.7429 88.7391 29.1984 88.4737 29.6267C88.2143 30.055 87.7649 30.429 87.1254 30.7487C86.492 31.0684 85.6505 31.2796 84.6009 31.3821C84.8241 31.4063 85.005 31.4274 85.1438 31.4455C86.0305 31.548 86.7303 31.7471 87.2431 32.0427C87.7619 32.3383 88.0997 32.8058 88.2565 33.4452L88.6456 35.1012C88.7301 35.4571 88.8326 35.7074 88.9533 35.8522C89.0739 35.9909 89.2308 36.0603 89.4238 36.0603C89.6832 36.0603 89.9486 35.9246 90.2201 35.6531L90.4825 35.8974ZM83.6779 25.781C83.4064 25.781 83.2043 25.8262 83.0716 25.9167C82.9389 26.0012 82.8454 26.155 82.7911 26.3782C82.7429 26.6014 82.7187 26.9332 82.7187 27.3736V31.1559H83.515C84.1424 31.1559 84.631 31.0413 84.9809 30.8121C85.3368 30.5828 85.5781 30.2722 85.7048 29.88C85.8375 29.4879 85.9039 29.0144 85.9039 28.4594C85.9039 27.5666 85.7319 26.897 85.3881 26.4506C85.0442 26.0042 84.4742 25.781 83.6779 25.781Z" fill="#FFC5C1"/>
<path d="M102.192 25.781C101.757 25.8353 101.434 25.9408 101.223 26.0977C101.018 26.2485 100.879 26.4838 100.807 26.8035C100.735 27.1172 100.698 27.5907 100.698 28.2241V31.6536C100.698 32.4981 100.638 33.222 100.518 33.8253C100.403 34.4285 100.21 34.9534 99.9384 35.3998C99.6368 35.8703 99.1904 36.2443 98.5992 36.5218C98.014 36.7993 97.3535 36.938 96.6175 36.938C95.2301 36.938 94.1412 36.6666 93.351 36.1237C92.9226 35.7979 92.5939 35.448 92.3646 35.074C92.1414 34.7 91.9846 34.2536 91.8941 33.7348C91.8036 33.216 91.7584 32.5404 91.7584 31.7079V27.3736C91.7584 26.9091 91.7222 26.5712 91.6498 26.3601C91.5834 26.149 91.4568 26.0042 91.2697 25.9258C91.0888 25.8473 90.7902 25.7991 90.3739 25.781V25.41C90.9772 25.4462 91.9152 25.4643 93.1881 25.4643C94.3946 25.4643 95.3266 25.4462 95.9841 25.41V25.781C95.5679 25.7991 95.2663 25.8473 95.0793 25.9258C94.8983 26.0042 94.7716 26.149 94.6992 26.3601C94.6328 26.5652 94.5997 26.903 94.5997 27.3736V32.0246C94.5997 32.9174 94.66 33.6564 94.7806 34.2415C94.9013 34.8206 95.1516 35.2882 95.5317 35.6441C95.9178 36 96.4848 36.1779 97.2328 36.1779C98.3489 36.1779 99.1331 35.8009 99.5855 35.0469C100.038 34.2868 100.264 33.225 100.264 31.8617V28.4504C100.264 27.7325 100.222 27.2016 100.137 26.8578C100.053 26.5079 99.8871 26.2545 99.6398 26.0977C99.3925 25.9408 99.0034 25.8353 98.4725 25.781V25.41C98.9551 25.4462 99.6217 25.4643 100.472 25.4643C101.208 25.4643 101.781 25.4462 102.192 25.41V25.781Z" fill="#FFC5C1"/>
<path d="M107.738 25.1476C108.305 25.1476 108.791 25.2109 109.195 25.3376C109.599 25.4643 109.979 25.6302 110.335 25.8353C110.631 26.0102 110.839 26.0977 110.96 26.0977C111.074 26.0977 111.159 26.0313 111.213 25.8986C111.273 25.7659 111.325 25.5578 111.367 25.2743H111.792C111.732 26.0163 111.702 27.3012 111.702 29.129H111.276C111.144 28.019 110.785 27.1473 110.2 26.5139C109.621 25.8745 108.863 25.5548 107.928 25.5548C107.524 25.5548 107.165 25.6181 106.852 25.7448C106.538 25.8654 106.294 26.0374 106.119 26.2606C105.95 26.4777 105.865 26.7281 105.865 27.0116C105.865 27.3494 105.965 27.6571 106.164 27.9346C106.369 28.206 106.637 28.4594 106.969 28.6947C107.301 28.9239 107.778 29.2255 108.399 29.5995L108.851 29.871C109.593 30.2933 110.2 30.6763 110.67 31.0202C111.141 31.364 111.53 31.7652 111.837 32.2237C112.145 32.6821 112.299 33.2039 112.299 33.7891C112.299 34.4647 112.103 35.0408 111.711 35.5174C111.319 35.9879 110.776 36.3438 110.082 36.5851C109.394 36.8204 108.607 36.938 107.72 36.938C107.129 36.938 106.619 36.8717 106.191 36.739C105.763 36.6123 105.319 36.4373 104.861 36.2141C104.559 36.0633 104.345 35.9879 104.218 35.9879C104.104 35.9879 104.016 36.0543 103.956 36.187C103.896 36.3137 103.847 36.5188 103.811 36.8023H103.386C103.434 36.1206 103.458 34.6155 103.458 32.287H103.884C103.974 33.6021 104.33 34.6366 104.951 35.3907C105.573 36.1387 106.45 36.5127 107.585 36.5127C107.94 36.5127 108.275 36.4554 108.589 36.3408C108.903 36.2202 109.156 36.0332 109.349 35.7798C109.548 35.5204 109.648 35.1977 109.648 34.8116C109.648 34.4677 109.554 34.1601 109.367 33.8886C109.18 33.6172 108.912 33.3578 108.562 33.1104C108.212 32.8631 107.723 32.5585 107.096 32.1965C106.336 31.7622 105.699 31.358 105.187 30.984C104.68 30.6039 104.267 30.1787 103.947 29.7081C103.633 29.2376 103.476 28.7188 103.476 28.1517C103.476 27.5002 103.66 26.9513 104.028 26.5049C104.402 26.0524 104.909 25.7146 105.549 25.4914C106.194 25.2622 106.924 25.1476 107.738 25.1476Z" fill="#FFC5C1"/>
<path d="M123.574 35.1192C123.93 35.8914 124.319 36.2865 124.741 36.3046V36.6756C124.162 36.6394 123.35 36.6213 122.307 36.6213C120.986 36.6213 120.011 36.6394 119.384 36.6756V36.3046C119.794 36.2865 120.096 36.2262 120.289 36.1237C120.488 36.0151 120.588 35.8401 120.588 35.5988C120.588 35.3817 120.506 35.0981 120.343 34.7482L119.42 32.6399H115.529L115.312 33.1376C114.962 33.9339 114.787 34.5703 114.787 35.0469C114.787 35.4752 114.923 35.7858 115.195 35.9789C115.466 36.1659 115.867 36.2745 116.398 36.3046V36.6756C115.692 36.6394 114.983 36.6213 114.272 36.6213C113.614 36.6213 113.113 36.6394 112.769 36.6756V36.3046C113.077 36.2443 113.355 36.0603 113.602 35.7527C113.849 35.439 114.115 34.9594 114.398 34.3139L118.316 25.3738C118.509 25.3859 118.651 25.3919 118.742 25.3919C118.844 25.3919 118.986 25.3859 119.167 25.3738L123.574 35.1192ZM117.484 28.206L115.692 32.2689H119.257L117.484 28.206Z" fill="#FFC5C1"/>
<path d="M130.975 25.1476C131.47 25.1476 131.901 25.2019 132.269 25.3105C132.643 25.413 132.96 25.5487 133.22 25.7176C133.485 25.8805 133.772 26.0917 134.079 26.3511C134.218 26.4717 134.339 26.532 134.441 26.532C134.694 26.532 134.851 26.158 134.912 25.41H135.337C135.289 26.152 135.265 27.449 135.265 29.3009H134.839C134.707 28.6253 134.58 28.1367 134.459 27.835C134.339 27.5274 134.155 27.2258 133.907 26.9302C133.563 26.52 133.174 26.2002 132.74 25.971C132.306 25.7418 131.85 25.6272 131.374 25.6272C130.692 25.6272 130.098 25.8473 129.591 26.2877C129.084 26.722 128.692 27.3494 128.415 28.1698C128.137 28.9903 127.998 29.9615 127.998 31.0835C127.998 32.2116 128.152 33.1798 128.46 33.9882C128.768 34.7965 129.184 35.4088 129.709 35.825C130.239 36.2413 130.837 36.4494 131.5 36.4494C131.989 36.4494 132.465 36.3378 132.93 36.1146C133.394 35.8854 133.79 35.5657 134.115 35.1554C134.357 34.8478 134.535 34.516 134.649 34.1601C134.764 33.8042 134.869 33.2824 134.966 32.5947H135.391C135.391 34.5431 135.415 35.9035 135.464 36.6756H135.038C134.978 35.9276 134.824 35.5536 134.577 35.5536C134.48 35.5536 134.357 35.6139 134.206 35.7346C133.747 36.1146 133.271 36.4102 132.776 36.6213C132.281 36.8325 131.69 36.938 131.003 36.938C129.832 36.938 128.795 36.7118 127.89 36.2594C126.991 35.8009 126.288 35.1373 125.782 34.2687C125.281 33.394 125.03 32.3564 125.03 31.1559C125.03 29.9796 125.29 28.936 125.809 28.0251C126.327 27.1142 127.036 26.4084 127.935 25.9077C128.84 25.4009 129.853 25.1476 130.975 25.1476Z" fill="#FFC5C1"/>
<path d="M140.377 36.2503H142.341C142.992 36.2503 143.544 36.1297 143.997 35.8884C144.449 35.6411 144.82 35.2429 145.11 34.694C145.405 34.145 145.631 33.409 145.788 32.4861H146.213C146.177 32.9566 146.159 33.5387 146.159 34.2325C146.159 34.9503 146.201 35.7647 146.286 36.6756C145.435 36.6394 143.978 36.6213 141.915 36.6213C139.786 36.6213 138.236 36.6394 137.264 36.6756V36.3046L143.083 25.8353H141.137C140.51 25.8353 139.976 25.9499 139.536 26.1791C139.101 26.4084 138.739 26.7824 138.45 27.3012C138.166 27.82 137.949 28.5107 137.798 29.3733H137.373C137.409 28.9812 137.427 28.4383 137.427 27.7446C137.427 27.0569 137.385 26.2787 137.301 25.41C138.223 25.4462 139.774 25.4643 141.952 25.4643C143.894 25.4643 145.309 25.4462 146.195 25.41V25.781L140.377 36.2503Z" fill="#FFC5C1"/>
<path d="M156.683 25.4733C157.316 25.4733 157.79 25.4522 158.103 25.41V25.79C157.844 25.8926 157.588 26.0977 157.334 26.4053C157.087 26.707 156.794 27.1624 156.457 27.7717L154.33 31.6807V34.6035C154.33 35.0981 154.372 35.4601 154.457 35.6893C154.547 35.9125 154.71 36.0663 154.945 36.1508C155.181 36.2353 155.552 36.2865 156.058 36.3046V36.6756C155.419 36.6394 154.354 36.6213 152.864 36.6213C151.374 36.6213 150.343 36.6394 149.77 36.6756V36.3046C150.276 36.2865 150.647 36.2353 150.883 36.1508C151.118 36.0663 151.278 35.9125 151.362 35.6893C151.453 35.4601 151.498 35.0981 151.498 34.6035V32.6037L148.177 26.8397C147.966 26.4717 147.779 26.2153 147.616 26.0705C147.459 25.9197 147.287 25.8292 147.1 25.7991V25.41C147.872 25.4703 148.602 25.5005 149.29 25.5005C150.273 25.5005 151.359 25.4703 152.548 25.41V25.7991C152.186 25.7991 151.899 25.8323 151.688 25.8986C151.483 25.965 151.38 26.1007 151.38 26.3058C151.38 26.4566 151.447 26.6466 151.579 26.8759L154.077 31.2554L155.271 29.0928C155.754 28.1879 155.995 27.4761 155.995 26.9573C155.995 26.2214 155.528 25.8323 154.593 25.79V25.41C155.304 25.4522 156.001 25.4733 156.683 25.4733Z" fill="#FFC5C1"/>
<path d="M170.211 35.1735C170.428 35.4691 170.624 35.7014 170.799 35.8703C170.98 36.0392 171.203 36.184 171.468 36.3046V36.6756C170.606 36.6394 169.662 36.6213 168.636 36.6213C167.749 36.6213 166.905 36.6394 166.103 36.6756V36.3046C166.495 36.2926 166.772 36.2594 166.935 36.2051C167.098 36.1508 167.179 36.0663 167.179 35.9517C167.179 35.8492 167.11 35.6893 166.971 35.4721L164.546 31.9884C164.335 31.6868 164.124 31.4606 163.913 31.3097C163.702 31.1589 163.427 31.0745 163.089 31.0564V34.7121C163.089 35.1766 163.122 35.5144 163.189 35.7255C163.261 35.9366 163.391 36.0814 163.578 36.1598C163.765 36.2383 164.067 36.2865 164.483 36.3046V36.6756C163.837 36.6394 162.92 36.6213 161.732 36.6213C160.453 36.6213 159.497 36.6394 158.864 36.6756V36.3046C159.28 36.2865 159.581 36.2383 159.768 36.1598C159.955 36.0814 160.082 35.9366 160.148 35.7255C160.221 35.5144 160.257 35.1766 160.257 34.7121V27.3736C160.257 26.9091 160.221 26.5712 160.148 26.3601C160.082 26.149 159.955 26.0042 159.768 25.9258C159.581 25.8473 159.28 25.7991 158.864 25.781V25.41C159.497 25.4462 160.453 25.4643 161.732 25.4643C162.92 25.4643 163.837 25.4462 164.483 25.41V25.781C164.061 25.7991 163.756 25.8473 163.569 25.9258C163.388 26.0042 163.261 26.149 163.189 26.3601C163.122 26.5652 163.089 26.903 163.089 27.3736V30.6854C163.626 30.6371 164.115 30.5044 164.555 30.2872C164.996 30.064 165.469 29.7111 165.976 29.2285L167.107 28.0794C167.584 27.6269 167.822 27.1956 167.822 26.7854C167.822 26.4898 167.695 26.2485 167.442 26.0615C167.194 25.8745 166.863 25.775 166.446 25.7629V25.41C167.333 25.4462 168.283 25.4643 169.297 25.4643C169.96 25.4643 170.509 25.4462 170.944 25.41V25.7629C170.509 25.8654 170.093 26.0374 169.695 26.2787C169.303 26.5139 168.88 26.8487 168.428 27.2831L166.148 29.5362L170.211 35.1735Z" fill="#FFC5C1"/>
<path fill-rule="evenodd" clip-rule="evenodd" d="M55.0182 29.6333C55.0504 29.093 55.0667 28.5484 55.0667 28C55.0667 27.6091 55.0584 27.2202 55.042 26.8333L42.347 26.8333C42.5794 27.0671 42.8279 27.2828 43.0924 27.4741C43.7779 27.9699 44.2187 28.505 44.4275 29.0589C44.5006 29.253 44.5436 29.4453 44.5595 29.6333L55.0182 29.6333ZM54.9466 30.5667H44.4121C44.4012 30.5927 44.3898 30.6184 44.3779 30.644C43.9824 31.4935 43.0442 32.0485 42.0983 32.1392C41.9963 32.2789 41.895 32.4673 41.8502 32.6699C41.8008 32.8928 41.8175 33.1292 41.9884 33.3667H54.5347C54.7192 32.4493 54.8573 31.5151 54.9466 30.5667ZM42.4169 34.4339C42.4197 34.3891 42.4204 34.3445 42.4187 34.3H54.3296C54.0871 35.3174 53.7871 36.3124 53.4333 37.2816V37.1H42.1165C42.1018 37.0129 42.0845 36.9262 42.064 36.842C42.0176 36.6509 41.948 36.4409 41.8371 36.2649C41.7692 36.1572 41.6669 36.0342 41.5232 35.9497C41.7327 35.7602 41.938 35.5387 42.0981 35.2971C42.2593 35.0539 42.3958 34.759 42.4169 34.4339ZM42.1809 38.0333C42.1635 38.139 42.1101 38.2363 42.0286 38.3081C41.8833 38.4359 41.6486 38.6368 41.4134 38.827C41.2269 38.9779 41.0182 39.14 40.851 39.2488C40.8432 39.2768 40.8343 39.3154 40.8253 39.3665C40.7951 39.5364 40.7752 39.774 40.7649 40.0509C40.7555 40.3024 40.7544 40.5731 40.7584 40.8333H51.8V40.9013C52.3024 39.9766 52.7524 39.0192 53.1461 38.0333H42.1809ZM40.4261 43.9296C40.7409 43.2005 40.816 42.3578 40.7932 41.7667H51.3091C50.7324 42.7409 50.0964 43.6759 49.4061 44.5667H40.0578C40.2084 44.3695 40.33 44.1523 40.4261 43.9296ZM38.5 45.4338C38.4271 45.4401 38.3522 45.4434 38.275 45.4434C36.4449 45.4434 32.0338 44.8457 30.0485 44.547C29.3837 44.5472 27.7365 45.0139 26.8719 47.0971C26.7184 47.4669 26.5121 47.8727 26.2681 48.3L45.9034 48.3C46.8845 47.4341 47.8023 46.4981 48.6491 45.5H38.5V45.4338ZM25.6998 49.2333C25.2436 49.9432 24.7205 50.6816 24.1895 51.3927C24.0284 51.6084 23.866 51.8225 23.7037 52.0333H39.6667V52.4302C41.4966 51.5547 43.2128 50.4797 44.7872 49.2333L25.6998 49.2333ZM21.8248 54.3591C22.174 53.9467 22.5645 53.4744 22.9708 52.9667H38.4714C35.2504 54.3192 31.7125 55.0667 28 55.0667C25.8755 55.0667 23.8082 54.8219 21.8248 54.3591ZM41.5631 25.9L54.9864 25.9C54.9137 24.9522 54.7921 24.018 54.6243 23.1L40.1945 23.1C40.2816 23.3903 40.3907 23.6981 40.5222 24.014C40.7859 24.6479 41.1336 25.2998 41.5631 25.9ZM39.9776 22.1667C39.9097 21.7261 39.9262 21.4464 39.9651 21.3318C39.9792 21.2906 39.9873 21.2475 39.9894 21.204C40.013 20.7146 40.0124 20.0826 39.9707 19.3667L53.6606 19.3667C53.9675 20.2792 54.2271 21.2135 54.4365 22.1667L39.9776 22.1667ZM39.896 18.4333H53.3275C52.9644 17.4727 52.5483 16.5382 52.0827 15.6333L39.4132 15.6333C39.4911 15.9421 39.5594 16.2506 39.6192 16.5555C39.7454 17.1988 39.8351 17.8338 39.896 18.4333ZM39.1468 14.7C38.8248 13.6969 38.3891 12.7257 37.8035 11.9L49.4667 11.9V11.5118C50.2427 12.5207 50.9492 13.5858 51.5791 14.7L39.1468 14.7ZM52.6457 14.7C51.1497 11.9335 49.2014 9.44746 46.9 7.34087V7.23333H46.7818C41.8146 2.73802 35.227 0 28 0C12.536 0 0 12.536 0 28C0 43.464 12.536 56 28 56C43.464 56 56 43.464 56 28C56 23.2524 54.8184 18.7809 52.7333 14.8633V14.7H52.6457ZM37.054 10.9667H49.0361C48.2303 9.97266 47.3554 9.03689 46.4187 8.16667L35.8462 8.16667C35.8076 8.31738 35.7461 8.4794 35.632 8.5997C35.6084 8.62456 35.5802 8.65002 35.5474 8.6736C35.5646 8.72683 35.5892 8.79184 35.624 8.86981C35.806 9.27764 36.2206 9.94375 37.054 10.9667ZM35.9536 7.23333L45.3605 7.23333C44.0315 6.12117 42.5942 5.1342 41.0667 4.29056V4.43333L34.474 4.43333C34.7838 4.58883 35.0567 4.7539 35.279 4.92994C35.6233 5.20262 35.9272 5.56705 35.945 6.03026C35.9637 6.51349 35.9653 6.90977 35.9536 7.23333ZM28 0.933333C32.1196 0.933333 36.0243 1.85369 39.5196 3.5L31.9119 3.5C31.1902 3.29536 30.4026 3.10319 29.5812 2.92405C27.0729 2.37703 24.1988 1.94115 21.8049 1.64559C23.7944 1.17973 25.8684 0.933333 28 0.933333ZM29.3823 3.83595C30.2251 4.01975 31.0191 4.21487 31.7333 4.4196V4.43333H31.7811C32.4397 4.62348 33.0293 4.82185 33.5251 5.02709C34.0488 5.2438 34.4423 5.45794 34.6995 5.66161C34.9674 5.87378 35.0103 6.01172 35.0124 6.06624C35.0513 7.0731 35.0097 7.61202 34.9561 7.87379C34.8609 7.91721 34.7749 7.98558 34.7088 8.07867C34.6212 8.202 34.5884 8.34008 34.5814 8.46244C34.568 8.69609 34.6433 8.96235 34.7717 9.25015C34.976 9.70787 35.3722 10.3437 36.0593 11.2177C34.8075 11.6779 33.0957 12.46 31.3708 13.5468C29.3182 14.8402 27.2121 16.5871 25.8538 18.7701C23.9913 21.7634 22.8894 23.5089 22.327 24.3894C22.0636 23.9253 21.7242 23.3961 21.3274 22.8754C20.7027 22.0558 19.9092 21.2226 19.0149 20.7115C18.0263 20.1466 17.0248 19.8054 16.0933 19.879C15.1278 19.9553 14.3096 20.4714 13.7165 21.4599C13.4501 21.904 13.3471 22.5219 13.3183 23.1561C13.2887 23.8067 13.3351 24.5459 13.4193 25.2828C13.5877 26.7579 13.9136 28.2755 14.13 29.1608C14.1311 29.1653 14.1323 29.1698 14.1335 29.1743L14.1346 29.1782C14.1356 29.1814 14.1365 29.1847 14.1375 29.1879C14.9637 31.8586 15.869 36.1408 15.8988 40.2854C15.9283 44.4009 15.094 48.2239 12.6498 50.296C5.57205 45.4139 0.933333 37.2487 0.933333 28C0.933333 15.999 8.74374 5.82228 19.5587 2.27558L19.5531 2.33097C22.1729 2.59545 26.1036 3.12091 29.3823 3.83595ZM13.4552 50.8306C15.7043 52.2664 18.1798 53.3791 20.8161 54.103C21.5385 53.2644 22.5136 52.0771 23.4417 50.8343C24.5465 49.3547 25.5548 47.8355 26.0098 46.7393C27.0502 44.2326 29.1098 43.5941 30.0954 43.6141C30.1156 43.6145 30.1356 43.6163 30.1555 43.6193C32.1475 43.9196 36.5199 44.5101 38.275 44.5101C38.9269 44.5101 39.3201 44.1368 39.5692 43.5597C39.8265 42.9637 39.8869 42.2215 39.8564 41.7195L39.8564 41.7182C39.8309 41.2778 39.8102 40.605 39.8322 40.0161C39.8431 39.7239 39.865 39.4363 39.9063 39.2034C39.9267 39.0883 39.9549 38.9684 39.9972 38.8617C40.0312 38.7761 40.1106 38.6008 40.291 38.498C40.3926 38.4401 40.593 38.2901 40.8265 38.1013C40.9751 37.9811 41.1244 37.8557 41.2482 37.7495C41.2374 37.5331 41.2095 37.2785 41.157 37.0622C41.123 36.9219 41.0851 36.826 41.0529 36.7714C40.8157 36.741 40.6095 36.6703 40.4536 36.5419C40.2746 36.3944 40.1659 36.1651 40.2142 35.9244C40.2392 35.8001 40.3136 35.6913 40.4205 35.623C40.7148 35.4349 41.0985 35.1159 41.3202 34.7814C41.4298 34.616 41.4787 34.4785 41.4855 34.3737C41.4911 34.2865 41.4707 34.196 41.374 34.0888C40.8984 33.562 40.8278 32.9698 40.9389 32.468C41.045 31.9891 41.3135 31.592 41.5331 31.3626C41.619 31.2729 41.7371 31.2211 41.8613 31.2187C42.5922 31.2048 43.2838 30.7827 43.5318 30.25C43.6488 29.9988 43.6756 29.7105 43.5541 29.388C43.4289 29.0557 43.1331 28.6554 42.5454 28.2303C41.1791 27.2421 40.2276 25.7357 39.6604 24.3726C39.3754 23.6876 39.1814 23.0245 39.0803 22.4601C38.9899 21.9548 38.9613 21.462 39.0598 21.1023C39.1031 20.0938 39.0387 18.4444 38.7034 16.7351C38.3599 14.9845 37.7436 13.2303 36.7208 12.0252L36.6865 11.9848C35.4837 12.4002 33.6854 13.1916 31.8684 14.3365C29.8785 15.5903 27.9012 17.2463 26.6462 19.2632C24.034 23.4614 22.9099 25.2182 22.6716 25.5755C22.578 25.716 22.4159 25.7949 22.2476 25.782C22.0793 25.769 21.9311 25.6663 21.8601 25.5132C21.6214 24.9991 21.1722 24.2114 20.5851 23.4412C19.9946 22.6664 19.2908 21.9441 18.5518 21.5218C17.6372 20.9992 16.8304 20.757 16.1668 20.8095C15.5373 20.8592 14.9737 21.1786 14.5168 21.9401C14.3744 22.1775 14.2778 22.6003 14.2506 23.1985C14.2242 23.7804 14.2653 24.4654 14.3466 25.1769C14.5081 26.5911 14.822 28.0591 15.0333 28.9256C15.8782 31.6614 16.8016 36.0285 16.8321 40.2787C16.8612 44.3392 16.0761 48.4426 13.4552 50.8306ZM41.0314 36.7401C41.0315 36.7401 41.032 36.7406 41.0329 36.7417C41.0319 36.7407 41.0314 36.7401 41.0314 36.7401ZM40.8707 39.1931C40.8708 39.1934 40.8694 39.1968 40.8661 39.2025C40.869 39.1957 40.8706 39.1928 40.8707 39.1931Z" fill="#FFC5C1"/>
</svg>
