<svg width="48" height="48" viewBox="0 0 48 48" fill="none" xmlns="http://www.w3.org/2000/svg">
<circle cx="24" cy="24" r="24" fill="#012C23"/>
<path d="M23.5875 24.4533C23.7063 24.5497 23.8546 24.6023 24.0075 24.6023C24.1605 24.6023 24.3088 24.5497 24.4275 24.4533L30.6209 19.12C30.4219 19.0474 30.2126 19.0069 30.0009 19H18.0009C17.7899 19.0026 17.5806 19.0386 17.3809 19.1067L23.5875 24.4533Z" fill="#A7C0BB"/>
<path d="M31.9993 20.9996C31.9973 20.6268 31.891 20.262 31.6926 19.9463L26.2793 24.613L31.7993 29.1996C31.9302 28.9294 31.9985 28.6332 31.9993 28.333V20.9996Z" fill="#A7C0BB"/>
<path d="M16.3067 19.9463C16.1083 20.262 16.002 20.6268 16 20.9996V28.333C16.0018 28.6309 16.0701 28.9248 16.2 29.193L21.72 24.6063L16.3067 19.9463Z" fill="#A7C0BB"/>
<path d="M25.2531 25.4863C24.8986 25.7739 24.4563 25.9315 23.9998 25.933C23.5433 25.9315 23.101 25.7739 22.7465 25.4863L17.1465 30.153C17.4142 30.275 17.7056 30.3365 17.9998 30.333H29.9998C30.2956 30.3302 30.587 30.2619 30.8532 30.133L25.2531 25.4863Z" fill="#A7C0BB"/>
</svg>
