<svg width="18" height="12" viewBox="0 0 18 12" fill="none" xmlns="http://www.w3.org/2000/svg">
<path fill-rule="evenodd" clip-rule="evenodd" d="M15.4485 5.25L11.466 1.27545C11.178 0.970059 11.178 0.502993 11.466 0.215568C11.754 -0.0718575 12.222 -0.0718576 12.528 0.215567L17.784 5.46108C17.9283 5.61411 18.0003 5.80775 18 5.99903C18 5.99935 18 5.99968 18 6C18 6.23494 17.892 6.44466 17.7229 6.58217L12.528 11.7844C12.222 12.0719 11.754 12.0719 11.466 11.7844C11.178 11.497 11.178 11.012 11.466 10.7245L15.4485 6.75L0.75 6.75C0.335786 6.75 -4.88325e-07 6.41421 -5.24537e-07 6C-5.60748e-07 5.58578 0.335787 5.25 0.75 5.25L15.4485 5.25Z" fill="#A7C0BB"/>
</svg>
