<svg width="102" height="24" viewBox="0 0 102 24" fill="none" xmlns="http://www.w3.org/2000/svg">
<path d="M7.95598 2.80639H1.22146C0.56121 2.80639 0 2.27819 0 1.61794C0 0.957695 0.56121 0.396484 1.22146 0.396484H17.348C18.0083 0.396484 18.5695 0.957695 18.5695 1.61794C18.5695 2.27819 18.0083 2.80639 17.348 2.80639H10.597V22.4322C10.597 23.1585 10.0028 23.7527 9.27648 23.7527C8.55021 23.7527 7.95598 23.1585 7.95598 22.4322V2.80639Z" fill="#FFC5C1"/>
<path d="M20.6826 12.066V12C20.6826 5.5956 25.4859 0 32.5506 0C39.6152 0 44.3525 5.54608 44.3525 11.934V12C44.3525 18.4044 39.5492 24 32.4845 24C25.4199 24 20.6826 18.4539 20.6826 12.066ZM41.6455 12.066V12C41.6455 6.73453 37.7995 2.4099 32.4845 2.4099C27.1695 2.4099 23.3896 6.652 23.3896 11.934V12C23.3896 17.2655 27.2356 21.5901 32.5506 21.5901C37.8656 21.5901 41.6455 17.3315 41.6455 12.066Z" fill="#FFC5C1"/>
<path d="M49.8984 1.58436C49.8984 0.891098 50.4927 0.296875 51.1859 0.296875H51.483C52.0442 0.296875 52.4404 0.593987 52.7045 0.990135L60.9906 13.4523L69.2767 0.990135C69.5408 0.560974 69.97 0.296875 70.4982 0.296875H70.7953C71.4885 0.296875 72.0828 0.891098 72.0828 1.58436V22.4482C72.0828 23.1745 71.4885 23.7687 70.7953 23.7687C70.069 23.7687 69.4748 23.1414 69.4748 22.4482V5.13319L62.047 16.0438C61.7499 16.4729 61.4198 16.704 60.9576 16.704C60.4954 16.704 60.1323 16.4729 59.8352 16.0438L52.4404 5.1662V22.4812C52.4404 23.2075 51.8792 23.7687 51.1529 23.7687C50.4596 23.7687 49.8984 23.2075 49.8984 22.4812V1.58436Z" fill="#FFC5C1"/>
<path d="M77.6621 12.066V12C77.6621 5.5956 82.4654 0 89.5301 0C96.5947 0 101.332 5.54608 101.332 11.934V12C101.332 18.4044 96.5287 24 89.464 24C82.3994 24 77.6621 18.4539 77.6621 12.066ZM98.625 12.066V12C98.625 6.73453 94.779 2.4099 89.464 2.4099C84.149 2.4099 80.3691 6.652 80.3691 11.934V12C80.3691 17.2655 84.2151 21.5901 89.5301 21.5901C94.8451 21.5901 98.625 17.3315 98.625 12.066Z" fill="#FFC5C1"/>
</svg>
